<svg id="Layer_1" data-name="Layer 1" xmlns="http://www.w3.org/2000/svg" viewBox="0 0 4811.6 1027.61"><defs><style>.cls-1,.cls-3,.cls-4{fill:#ea2a28;}.cls-2,.cls-3,.cls-4{isolation:isolate;}.cls-3,.cls-4{font-size:747.9px;}.cls-3{font-family:Medium, Noir;}.cls-4{font-family:Regular, Noir;}</style></defs><g id="Group_221" data-name="Group 221"><path id="Path_2570" data-name="Path 2570" class="cls-1" d="M279.6,2175.77a48.08,48.08,0,0,1,22.78,41c.61,50.68.2,101.36,0,152.16a11.64,11.64,0,0,1-10,13.07,12.09,12.09,0,0,1-2.55.06c-8.07,0-12.74-4.75-12.89-13.83-.21-21.17-.16-42.37-.21-63.57v-9h-3.61v94.67c0,10.6-4.2,15.71-12.61,15.65s-12.9-5.15-12.9-15.68v-87.91l-3-.23a58.34,58.34,0,0,0-1.14,8.12v96.22c0,7.27-1.91,13.18-9.8,15-9.1,2.07-15.7-3.76-15.73-14v-93.65a64.5,64.5,0,0,0-1.39-9.38l-3.3.33c-.26,2.89-.7,5.78-.7,8.64v67.88c0,7.27-2.32,12.89-10.31,14.72-9,2-15.22-3.81-15.25-14.49V2273.22a18.5,18.5,0,0,0-2-9.8c-3.35,4-6.73,8-10.13,12A158.77,158.77,0,0,1,163.11,2289a12.16,12.16,0,0,1-16.5,1.21,10.85,10.85,0,0,1-2.58-14.72c3.84-8,8.07-15.79,12.4-23.52,10.88-19.5,22.08-38.69,32.86-58.36a45.92,45.92,0,0,1,17-17.9H117.67a32,32,0,0,0-32,32h0v476.85a32,32,0,0,0,32,32h92.69a48,48,0,0,1-24.14-41.86c-.62-50.67-.21-101.37,0-152.15a11.63,11.63,0,0,1,10-13.07,12,12,0,0,1,2.54-.06c8.07,0,12.72,4.72,12.9,13.82.2,21.2.15,42.37.2,63.57V2596h3.59v-94.68c0-10.6,4.2-15.73,12.63-15.65s12.9,5.16,12.9,15.7v87.92l3,.21a58.48,58.48,0,0,0,1.14-8.13v-96.22c0-7.27,1.91-13.18,9.8-15,9.08-2.09,15.71,3.76,15.71,14v93.64a62.84,62.84,0,0,0,1.36,9.36l3.3-.33c.24-2.89.67-5.78.7-8.64v-67.86c0-7.27,2.32-12.89,10.32-14.75,9-2,15.19,3.82,15.21,14.52v108.32a18.43,18.43,0,0,0,2,9.8l10.11-12.05a163.62,163.62,0,0,1,11.78-13.59,12.21,12.21,0,0,1,16.54-1.21,10.85,10.85,0,0,1,2.57,14.73c-3.84,8-8.07,15.78-12.37,23.54-10.89,19.47-22.11,38.69-32.86,58.34a45.38,45.38,0,0,1-18.49,18.77h76.54a32,32,0,0,0,32-32h0V2207.82a32,32,0,0,0-32-32h0Z" transform="translate(-85.64 -2071.25)"/><g id="haate" class="cls-2"><text class="cls-3" transform="translate(418.86 635.71)">haate</text></g><g id="haate-2" class="cls-2"><text class="cls-4" transform="translate(2739.93 635.71)">haate</text></g></g></svg>